HIERARCHY
ROOT Hips
{
  OFFSET 5.72205e-005 65.662 3.42586
  CHANNELS 6 Xposition Yposition Zposition Zrotation Xrotation Yrotation
  JOINT Chest
  {
    OFFSET 0 8.7983 -4.7612
    CHANNELS 6 Xposition Yposition Zposition Zrotation Xrotation Yrotation
    JOINT Chest2
    {
      OFFSET 0 8.0291 0.4195
      CHANNELS 6 Xposition Yposition Zposition Zrotation Xrotation Yrotation
      JOINT Chest3
      {
        OFFSET 0 9.9351 -2.2114
        CHANNELS 6 Xposition Yposition Zposition Zrotation Xrotation Yrotation
        JOINT Neck
        {
          OFFSET 0 22.3885 -0.4656
          CHANNELS 6 Xposition Yposition Zposition Zrotation Xrotation Yrotation
          JOINT Head
          {
            OFFSET -0.0001 12.643 3.4389
            CHANNELS 6 Xposition Yposition Zposition Zrotation Xrotation Yrotation
            End Site
            {
              OFFSET 0.0001 17.6655 0.5274
            }
          }
        }
        JOINT LeftCollar
        {
          OFFSET 2.2603 21.606 7.4023
          CHANNELS 6 Xposition Yposition Zposition Zrotation Xrotation Yrotation
          JOINT LeftShoulder
          {
            OFFSET 13.5163 -1.1332 -5.0146
            CHANNELS 6 Xposition Yposition Zposition Zrotation Xrotation Yrotation
            JOINT LeftElbow
            {
              OFFSET -0.0995 -28.05 -0.2431
              CHANNELS 6 Xposition Yposition Zposition Zrotation Xrotation Yrotation
              JOINT LeftWrist
              {
                OFFSET 0.0679 -23.3996 -0.1402
                CHANNELS 6 Xposition Yposition Zposition Zrotation Xrotation Yrotation
                JOINT LeftFinger1
                {
                  OFFSET 0.7932 -9.069 2.5189
                  CHANNELS 6 Xposition Yposition Zposition Zrotation Xrotation Yrotation
                  JOINT LeftFinger11
                  {
                    OFFSET -0.8272 -3.3923 0.5977
                    CHANNELS 6 Xposition Yposition Zposition Zrotation Xrotation Yrotation
                    JOINT LeftFinger12
                    {
                      OFFSET -0.5649 -2.3158 0.4082
                      CHANNELS 6 Xposition Yposition Zposition Zrotation Xrotation Yrotation
                      End Site
                      {
                        OFFSET -0.4919 -1.6479 0.2673
                      }
                    }
                  }
                }
                JOINT LeftFinger2
                {
                  OFFSET 0.9159 -9.2044 0.2193
                  CHANNELS 6 Xposition Yposition Zposition Zrotation Xrotation Yrotation
                  JOINT LeftFinger21
                  {
                    OFFSET 0.0117 -4.1944 -0.0248
                    CHANNELS 6 Xposition Yposition Zposition Zrotation Xrotation Yrotation
                    JOINT LeftFinger22
                    {
                      OFFSET 0.0071 -2.3249 -0.0142
                      CHANNELS 6 Xposition Yposition Zposition Zrotation Xrotation Yrotation
                      End Site
                      {
                        OFFSET -0.1475 -2.0882 0.0028
                      }
                    }
                  }
                }
                JOINT LeftFinger3
                {
                  OFFSET 0.6113 -8.7231 -2.0637
                  CHANNELS 6 Xposition Yposition Zposition Zrotation Xrotation Yrotation
                  JOINT LeftFinger31
                  {
                    OFFSET -0.1927 -3.8059 -0.2383
                    CHANNELS 6 Xposition Yposition Zposition Zrotation Xrotation Yrotation
                    JOINT LeftFinger32
                    {
                      OFFSET -0.1091 -2.1688 -0.1362
                      CHANNELS 6 Xposition Yposition Zposition Zrotation Xrotation Yrotation
                      End Site
                      {
                        OFFSET -0.2358 -1.9176 -0.0906
                      }
                    }
                  }
                }
                JOINT LeftFinger4
                {
                  OFFSET -0.6151 -8.0947 -3.5641
                  CHANNELS 6 Xposition Yposition Zposition Zrotation Xrotation Yrotation
                  JOINT LeftFinger41
                  {
                    OFFSET -0.4882 -2.341 -0.6462
                    CHANNELS 6 Xposition Yposition Zposition Zrotation Xrotation Yrotation
                    JOINT LeftFinger42
                    {
                      OFFSET -0.3575 -1.7167 -0.4742
                      CHANNELS 6 Xposition Yposition Zposition Zrotation Xrotation Yrotation
                      End Site
                      {
                        OFFSET -0.4187 -1.5237 -0.3496
                      }
                    }
                  }
                }
                JOINT LeftFinger0
                {
                  OFFSET -1.42 -1.8761 1.4223
                  CHANNELS 6 Xposition Yposition Zposition Zrotation Xrotation Yrotation
                  JOINT LeftFinger01
                  {
                    OFFSET -1.1471 -3.4929 2.6334
                    CHANNELS 6 Xposition Yposition Zposition Zrotation Xrotation Yrotation
                    JOINT LeftFinger02
                    {
                      OFFSET -0.823 -2.3 1.6571
                      CHANNELS 6 Xposition Yposition Zposition Zrotation Xrotation Yrotation
                      End Site
                      {
                        OFFSET -0.5822 -1.6914 1.1582
                      }
                    }
                  }
                }
              }
            }
          }
        }
        JOINT RightCollar
        {
          OFFSET -2.2603 21.606 7.4023
          CHANNELS 6 Xposition Yposition Zposition Zrotation Xrotation Yrotation
          JOINT RightShoulder
          {
            OFFSET -13.5187 -1.1334 -5.0155
            CHANNELS 6 Xposition Yposition Zposition Zrotation Xrotation Yrotation
            JOINT RightElbow
            {
              OFFSET 0.0994 -28.0499 -0.2431
              CHANNELS 6 Xposition Yposition Zposition Zrotation Xrotation Yrotation
              JOINT RightWrist
              {
                OFFSET -0.0679 -23.3996 -0.1402
                CHANNELS 6 Xposition Yposition Zposition Zrotation Xrotation Yrotation
                JOINT RightFinger1
                {
                  OFFSET -0.7932 -9.0691 2.5189
                  CHANNELS 6 Xposition Yposition Zposition Zrotation Xrotation Yrotation
                  JOINT RightFinger11
                  {
                    OFFSET 0.8272 -3.3923 0.5977
                    CHANNELS 6 Xposition Yposition Zposition Zrotation Xrotation Yrotation
                    JOINT RightFinger12
                    {
                      OFFSET 0.565 -2.3158 0.4082
                      CHANNELS 6 Xposition Yposition Zposition Zrotation Xrotation Yrotation
                      End Site
                      {
                        OFFSET 0.4919 -1.6479 0.2673
                      }
                    }
                  }
                }
                JOINT RightFinger2
                {
                  OFFSET -0.916 -9.2044 0.2193
                  CHANNELS 6 Xposition Yposition Zposition Zrotation Xrotation Yrotation
                  JOINT RightFinger21
                  {
                    OFFSET -0.0117 -4.1944 -0.0248
                    CHANNELS 6 Xposition Yposition Zposition Zrotation Xrotation Yrotation
                    JOINT RightFinger22
                    {
                      OFFSET -0.0071 -2.3249 -0.0142
                      CHANNELS 6 Xposition Yposition Zposition Zrotation Xrotation Yrotation
                      End Site
                      {
                        OFFSET 0.1475 -2.0882 0.0028
                      }
                    }
                  }
                }
                JOINT RightFinger3
                {
                  OFFSET -0.6113 -8.7231 -2.0637
                  CHANNELS 6 Xposition Yposition Zposition Zrotation Xrotation Yrotation
                  JOINT RightFinger31
                  {
                    OFFSET 0.1927 -3.8059 -0.2383
                    CHANNELS 6 Xposition Yposition Zposition Zrotation Xrotation Yrotation
                    JOINT RightFinger32
                    {
                      OFFSET 0.1091 -2.1688 -0.1362
                      CHANNELS 6 Xposition Yposition Zposition Zrotation Xrotation Yrotation
                      End Site
                      {
                        OFFSET 0.2358 -1.9176 -0.0906
                      }
                    }
                  }
                }
                JOINT RightFinger4
                {
                  OFFSET 0.6151 -8.0947 -3.564
                  CHANNELS 6 Xposition Yposition Zposition Zrotation Xrotation Yrotation
                  JOINT RightFinger41
                  {
                    OFFSET 0.4882 -2.341 -0.6462
                    CHANNELS 6 Xposition Yposition Zposition Zrotation Xrotation Yrotation
                    JOINT RightFinger42
                    {
                      OFFSET 0.3574 -1.7166 -0.4742
                      CHANNELS 6 Xposition Yposition Zposition Zrotation Xrotation Yrotation
                      End Site
                      {
                        OFFSET 0.4187 -1.5237 -0.3496
                      }
                    }
                  }
                }
                JOINT RightFinger0
                {
                  OFFSET 1.4199 -1.8761 1.4221
                  CHANNELS 6 Xposition Yposition Zposition Zrotation Xrotation Yrotation
                  JOINT RightFinger01
                  {
                    OFFSET 1.1472 -3.4929 2.6336
                    CHANNELS 6 Xposition Yposition Zposition Zrotation Xrotation Yrotation
                    JOINT RightFinger02
                    {
                      OFFSET 0.8229 -2.3 1.6571
                      CHANNELS 6 Xposition Yposition Zposition Zrotation Xrotation Yrotation
                      End Site
                      {
                        OFFSET 0.5822 -1.6914 1.1582
                      }
                    }
                  }
                }
              }
            }
          }
        }
      }
    }
  }
  JOINT RightHip
  {
    OFFSET -9.412 3.9771 -0.7758
    CHANNELS 6 Xposition Yposition Zposition Zrotation Xrotation Yrotation
    JOINT RightKnee
    {
      OFFSET -0.7531 -40.938 0
      CHANNELS 6 Xposition Yposition Zposition Zrotation Xrotation Yrotation
      JOINT RightAnkle
      {
        OFFSET 0 -40.1986 0
        CHANNELS 6 Xposition Yposition Zposition Zrotation Xrotation Yrotation
        JOINT RightToe
        {
          OFFSET 0 -4.4182 9.239
          CHANNELS 6 Xposition Yposition Zposition Zrotation Xrotation Yrotation
          End Site
          {
            OFFSET 0 0 6.1981
          }
        }
      }
    }
  }
  JOINT LeftHip
  {
    OFFSET 9.4119 3.9773 -0.7758
    CHANNELS 6 Xposition Yposition Zposition Zrotation Xrotation Yrotation
    JOINT LeftKnee
    {
      OFFSET 0.7532 -40.9383 0
      CHANNELS 6 Xposition Yposition Zposition Zrotation Xrotation Yrotation
      JOINT LeftAnkle
      {
        OFFSET 0 -40.1986 0
        CHANNELS 6 Xposition Yposition Zposition Zrotation Xrotation Yrotation
        JOINT LeftToe
        {
          OFFSET 0 -4.4182 9.239
          CHANNELS 6 Xposition Yposition Zposition Zrotation Xrotation Yrotation
          End Site
          {
            OFFSET 0 0 6.1981
          }
        }
      }
    }
  }
}
MOTION
Frames:	4
Frame Time:	0.0333333
12.6063 8.26655 17.0717 -2.99133 0.0123663 -157.066 -1.77636e-015 8.7983 -4.7612 -2.16001 10.5159 1.75327 0 8.0291 0.4195 -4.776 20.9505 4.02013 -1.77636e-015 9.9351 -2.2114 -4.776 20.9505 4.02014 -1.33227e-015 22.3885 -0.4656 6.5055 -0.925611 -0.0630556 -0.0001 12.643 3.4389 19.4663 14.3246 0.883685 2.2603 21.606 7.4023 -52.3293 -28.9958 -33.0732 13.5163 -1.1332 -5.0146 92.1233 16.2754 2.53938 -0.0995 -28.05 -0.2431 -0.918684 -0.449838 0.745573 0.0679 -23.3996 -0.1402 -16.3703 -3.35632 -1.95797 0.7932 -9.069 2.5189 -3.18055e-015 0 -0 -0.8272 -3.3923 0.5977 -3.18055e-015 3.18055e-015 -0 -0.5649 -2.3158 0.4082 -9.54166e-015 0 -0 0.9159 -9.2044 0.2193 -3.18055e-015 0 -0 0.0117 -4.1944 -0.0248 -0.0128123 0.00232395 8.14439e-005 0.0071 -2.3249 -0.0142 -1.76859e-006 1.07997e-006 2.39449e-006 0.6113 -8.7231 -2.0637 -3.18055e-015 0 -0 -0.1927 -3.8059 -0.2383 -0.0160421 0.00299392 0.000854275 -0.1091 -2.1688 -0.1362 3.18055e-015 -9.54166e-015 -0 -0.6151 -8.0947 -3.5641 -3.18055e-015 0 -0 -0.4882 -2.341 -0.6462 -0.012592 0.00312455 0.00282772 -0.3575 -1.7167 -0.4742 2.15287e-006 -1.95898e-006 2.71339e-006 -1.42 -1.8761 1.4223 -3.18055e-015 0 -0 -1.1471 -3.4929 2.6334 -3.18055e-015 3.18055e-015 -0 -0.823 -2.3 1.6571 -9.54166e-015 0 -0 -2.2603 21.606 7.4023 25.5275 14.2695 24.4534 -13.5187 -1.1334 -5.0155 -102.298 -35.5273 4.28053 0.0994 -28.0499 -0.2431 3.34239 -46.7567 2.80615 -0.0679 -23.3996 -0.1402 -49.5789 -14.2046 -7.8133 -0.7932 -9.0691 2.5189 -1.41349e-006 2.78762e-006 2.8803e-006 0.8272 -3.3923 0.5977 -5.01827e-006 -4.35375e-006 5.55189e-006 0.565 -2.3158 0.4082 3.18055e-015 1.01132e-006 -3.18055e-015 -0.916 -9.2044 0.2193 -1.41349e-006 2.78762e-006 2.8803e-006 -0.0117 -4.1944 -0.0248 0.0129521 0.00231322 -8.40418e-005 -0.0071 -2.3249 -0.0142 -5.29669e-031 3.18055e-015 9.54166e-015 -0.6113 -8.7231 -2.0637 -1.41349e-006 2.78762e-006 2.8803e-006 0.1927 -3.8059 -0.2383 0.0163267 0.00303215 -0.000862677 0.1091 -2.1688 -0.1362 -1.27222e-014 -6.36111e-015 -0 0.6151 -8.0947 -3.564 -1.41349e-006 2.78762e-006 2.8803e-006 0.4882 -2.341 -0.6462 0.0146283 0.00369259 -0.00325927 0.3574 -1.7166 -0.4742 -3.18055e-015 -3.18055e-015 -1.90833e-014 1.4199 -1.8761 1.4221 -1.41349e-006 2.78762e-006 2.8803e-006 1.1472 -3.4929 2.6336 -5.01827e-006 -4.35375e-006 5.55189e-006 0.8229 -2.3 1.6571 3.18055e-015 1.01132e-006 -3.18055e-015 -9.412 3.9771 -0.7758 -64.5096 -30.3239 -81.8873 -0.7531 -40.938 -1.77636e-015 -148.464 14.1823 -170.901 0 -40.1986 1.77636e-015 -36.1995 40.4704 25.4445 0 -4.4182 9.239 -7.4104e-006 6.6597e-008 2.77254e-006 9.4119 3.9773 -0.7758 64.4715 -30.2432 81.7959 0.7532 -40.9383 1.77636e-015 148.591 14.1258 170.884 0 -40.1986 0 36.4271 40.3622 -25.4602 0 -4.4182 9.239 3.18055e-015 -6.36111e-015 7.95139e-016 
12.6509 8.2669 17.2399 -2.99134 0.0123804 -157.066 -2.66454e-015 8.7983 -4.7612 -2.16001 10.5159 1.75326 1.77636e-015 8.0291 0.4195 -4.77599 20.9505 4.02014 0 9.9351 -2.2114 -4.77601 20.9505 4.02014 -4.44089e-016 22.3885 -0.4656 6.47805 -1.08799 -0.0535922 -0.0001 12.643 3.4389 19.3793 14.1291 0.914036 2.2603 21.606 7.4023 -51.8895 -28.8005 -32.9196 13.5163 -1.1332 -5.0146 91.5487 16.1111 2.76684 -0.0995 -28.05 -0.2431 -0.611326 -0.843982 0.744979 0.0679 -23.3996 -0.1402 -16.3703 -3.35631 -1.958 0.7932 -9.069 2.5189 -3.18055e-015 -1.27222e-014 -6.36111e-015 -0.8272 -3.3923 0.5977 -4.77083e-015 -6.36111e-015 6.36111e-015 -0.5649 -2.3158 0.4082 1.20556e-006 5.34141e-008 -4.07969e-006 0.9159 -9.2044 0.2193 -3.18055e-015 -1.27222e-014 -6.36111e-015 0.0117 -4.1944 -0.0248 -0.0128187 0.00232868 8.02694e-005 0.0071 -2.3249 -0.0142 -2.35163e-023 4.23632e-007 3.18055e-015 0.6113 -8.7231 -2.0637 -3.18055e-015 -1.27222e-014 -6.36111e-015 -0.1927 -3.8059 -0.2383 -0.016005 0.00298491 0.000850383 -0.1091 -2.1688 -0.1362 -3.8923e-022 2.33725e-006 9.54166e-015 -0.6151 -8.0947 -3.5641 -3.18055e-015 -1.27222e-014 -6.36111e-015 -0.4882 -2.341 -0.6462 -0.0125504 0.00311531 0.00282115 -0.3575 -1.7167 -0.4742 -2.72141e-006 -1.52865e-006 -4.33973e-006 -1.42 -1.8761 1.4223 -3.18055e-015 -1.27222e-014 -6.36111e-015 -1.1471 -3.4929 2.6334 -4.77083e-015 -6.36111e-015 6.36111e-015 -0.823 -2.3 1.6571 1.20556e-006 5.34141e-008 -4.07969e-006 -2.2603 21.606 7.4023 25.4786 14.0498 24.5835 -13.5187 -1.1334 -5.0155 -101.58 -35.3454 4.31494 0.0994 -28.0499 -0.2431 3.05096 -46.5447 2.65251 -0.0679 -23.3996 -0.1402 -49.3401 -14.0895 -7.73332 -0.7932 -9.0691 2.5189 6.36111e-015 3.18055e-015 6.36111e-015 0.8272 -3.3923 0.5977 3.18055e-015 -9.55556e-007 -0 0.565 -2.3158 0.4082 3.18055e-015 -3.18055e-015 -3.18055e-015 -0.916 -9.2044 0.2193 6.36111e-015 3.18055e-015 6.36111e-015 -0.0117 -4.1944 -0.0248 0.0129518 0.00231053 -9.21901e-005 -0.0071 -2.3249 -0.0142 -9.73704e-006 -2.18585e-007 -5.35826e-006 -0.6113 -8.7231 -2.0637 6.36111e-015 3.18055e-015 6.36111e-015 0.1927 -3.8059 -0.2383 0.0163133 0.00302447 -0.000875019 0.1091 -2.1688 -0.1362 3.18055e-015 1.90833e-014 -6.36111e-015 0.6151 -8.0947 -3.564 6.36111e-015 3.18055e-015 6.36111e-015 0.4882 -2.341 -0.6462 0.0145268 0.00365895 -0.00326233 0.3574 -1.7166 -0.4742 -3.53113e-031 6.36111e-015 3.18055e-015 1.4199 -1.8761 1.4221 6.36111e-015 3.18055e-015 6.36111e-015 1.1472 -3.4929 2.6336 3.18055e-015 -9.55556e-007 -0 0.8229 -2.3 1.6571 3.18055e-015 -3.18055e-015 -3.18055e-015 -9.412 3.9771 -0.7758 -64.1888 -30.6427 -81.6508 -0.7531 -40.938 1.77636e-015 -148.573 14.1805 -170.932 7.10543e-015 -40.1986 0 -35.9034 40.3198 25.3403 0 -4.4182 9.239 8.02866e-006 5.57043e-006 1.62538e-006 9.4119 3.9773 -0.7758 64.1504 -30.5614 81.5609 0.7532 -40.9383 0 148.699 14.1235 170.916 -7.10543e-015 -40.1986 1.77636e-015 36.1311 40.2122 -25.3557 0 -4.4182 9.239 -2.98225e-006 -2.55001e-007 1.74726e-006 
12.6954 8.2673 17.4081 -2.99134 0.0123804 -157.066 -8.88178e-016 8.7983 -4.7612 -2.16001 10.5159 1.75327 0 8.0291 0.4195 -4.776 20.9505 4.02014 0 9.9351 -2.2114 -4.776 20.9505 4.02014 -4.44089e-016 22.3885 -0.4656 6.45061 -1.25045 -0.0442162 -0.0001 12.643 3.4389 19.2925 13.9333 0.944089 2.2603 21.606 7.4023 -51.4506 -28.604 -32.7679 13.5163 -1.1332 -5.0146 90.9741 15.9442 2.99283 -0.0995 -28.05 -0.2431 -0.303495 -1.2386 0.746476 0.0679 -23.3996 -0.1402 -16.3703 -3.35626 -1.95796 0.7932 -9.06901 2.5189 9.42182e-007 -1.90678e-006 -4.6611e-006 -0.8272 -3.3923 0.5977 1.59028e-015 3.18055e-015 -0 -0.5649 -2.3158 0.4082 3.18055e-015 0 -6.36111e-015 0.9159 -9.20441 0.2193 9.42182e-007 -1.90678e-006 -4.6611e-006 0.0117 -4.1944 -0.0248 -0.012775 0.00232132 9.11028e-005 0.0071 -2.3249 -0.0142 -4.77083e-015 6.36111e-015 -6.36111e-015 0.6113 -8.72311 -2.0637 9.42182e-007 -1.90678e-006 -4.6611e-006 -0.1927 -3.8059 -0.2383 -0.0160255 0.00299847 0.000860941 -0.1091 -2.1688 -0.1362 1.43125e-014 -1.27222e-014 -6.36111e-015 -0.6151 -8.09471 -3.5641 9.42182e-007 -1.90678e-006 -4.6611e-006 -0.4882 -2.341 -0.6462 -0.0126003 0.00312869 0.00283363 -0.3575 -1.7167 -0.4742 3.18055e-015 9.54166e-015 -0 -1.42 -1.8761 1.4223 9.42182e-007 -1.90678e-006 -4.6611e-006 -1.1471 -3.4929 2.6334 1.59028e-015 3.18055e-015 -0 -0.823 -2.3 1.6571 3.18055e-015 0 -6.36111e-015 -2.2603 21.606 7.4023 25.4304 13.8298 24.7132 -13.5187 -1.1334 -5.0155 -100.862 -35.1625 4.34661 0.0994 -28.0499 -0.2431 2.76123 -46.3321 2.50097 -0.0679 -23.3996 -0.1402 -49.1016 -13.9741 -7.65381 -0.7932 -9.0691 2.5189 0 0 -3.18055e-015 0.8272 -3.3923 0.5977 -7.13322e-008 -3.71521e-006 1.8942e-007 0.565 -2.3158 0.4082 -5.99134e-007 1.38626e-006 -6.79491e-007 -0.916 -9.2044 0.2193 0 0 -3.18055e-015 -0.0117 -4.1944 -0.0248 0.012951 0.00230942 -8.11344e-005 -0.0071 -2.3249 -0.0142 -5.29669e-031 -3.18055e-015 -9.54166e-015 -0.6113 -8.7231 -2.0637 0 0 -3.18055e-015 0.1927 -3.8059 -0.2383 0.0163385 0.00303342 -0.00086945 0.1091 -2.1688 -0.1362 -2.06868e-006 -5.97968e-006 2.16951e-006 0.6151 -8.0947 -3.564 0 0 -3.18055e-015 0.4882 -2.341 -0.6462 0.0145864 0.00366258 -0.00325613 0.3574 -1.7166 -0.4742 -6.36111e-015 -3.18055e-015 9.54166e-015 1.4199 -1.8761 1.4221 0 0 -3.18055e-015 1.1472 -3.4929 2.6336 -7.13322e-008 -3.71521e-006 1.8942e-007 0.8229 -2.3 1.6571 -5.99134e-007 1.38626e-006 -6.79491e-007 -9.412 3.9771 -0.7758 -63.8637 -30.9615 -81.4103 -0.7531 -40.938 5.32907e-015 -148.682 14.1792 -170.963 -7.10543e-015 -40.1986 -5.32907e-015 -35.6083 40.1683 25.237 0 -4.4182 9.239 1.12355e-006 -3.92468e-006 1.23074e-006 9.4119 3.9773 -0.7758 63.8249 -30.8799 81.322 0.7532 -40.9383 0 148.809 14.1219 170.948 0 -40.1986 3.55271e-015 35.8366 40.0614 -25.2522 -3.55271e-015 -4.4182 9.239 7.72879e-006 -1.68647e-005 2.09182e-006 
12.7399 8.26773 17.5762 -2.99134 0.0123804 -157.066 -8.88178e-016 8.7983 -4.7612 -2.16001 10.5159 1.75326 -1.77636e-015 8.0291 0.4195 -4.77599 20.9505 4.02014 1.77636e-015 9.9351 -2.2114 -4.776 20.9505 4.02014 4.44089e-016 22.3885 -0.4656 6.42319 -1.41297 -0.0349071 -0.0001 12.643 3.4389 19.2058 13.7374 0.973816 2.2603 21.606 7.4023 -51.0127 -28.4063 -32.618 13.5163 -1.1332 -5.0146 90.3996 15.7747 3.21731 -0.0995 -28.05 -0.2431 0.00485335 -1.63366 0.750096 0.0679 -23.3996 -0.1402 -16.3703 -3.35629 -1.95798 0.7932 -9.069 2.5189 1.01995e-005 -3.53057e-006 3.54095e-006 -0.8272 -3.3923 0.5977 1.59028e-015 0 -0 -0.5649 -2.3158 0.4082 4.77083e-015 0 3.18055e-015 0.9159 -9.2044 0.2193 1.01995e-005 -3.53057e-006 3.54095e-006 0.0117 -4.1944 -0.0248 -0.0128184 0.00232181 8.89554e-005 0.0071 -2.3249 -0.0142 -7.95139e-015 0 3.18055e-015 0.6113 -8.7231 -2.0637 1.01995e-005 -3.53057e-006 3.54095e-006 -0.1927 -3.8059 -0.2383 -0.016039 0.00299159 0.000855235 -0.1091 -2.1688 -0.1362 8.525e-007 2.44428e-006 -1.23819e-006 -0.6151 -8.0947 -3.5641 1.01995e-005 -3.53057e-006 3.54095e-006 -0.4882 -2.341 -0.6462 -0.0125904 0.00312616 0.00282691 -0.3575 -1.7167 -0.4742 -1.59028e-015 0 -3.18055e-015 -1.42 -1.8761 1.4223 1.01995e-005 -3.53057e-006 3.54095e-006 -1.1471 -3.4929 2.6334 1.59028e-015 0 -0 -0.823 -2.3 1.6571 4.77083e-015 0 3.18055e-015 -2.2603 21.606 7.4023 25.3826 13.6097 24.8427 -13.5187 -1.1334 -5.0155 -100.144 -34.9789 4.37553 0.0994 -28.0499 -0.2431 2.47334 -46.1187 2.35149 -0.0679 -23.3996 -0.1402 -48.8632 -13.8583 -7.57484 -0.7932 -9.0691 2.5189 2.54783e-006 -3.66638e-006 -3.90485e-006 0.8272 -3.3923 0.5977 -7.41138e-006 -5.55142e-006 -1.83983e-006 0.565 -2.3158 0.4082 2.48513e-006 -2.2899e-006 -3.71269e-006 -0.916 -9.2044 0.2193 2.54783e-006 -3.66638e-006 -3.90485e-006 -0.0117 -4.1944 -0.0248 0.0129617 0.0023279 -8.7075e-005 -0.0071 -2.3249 -0.0142 8.34688e-007 -7.382e-006 -3.3311e-006 -0.6113 -8.7231 -2.0637 2.54783e-006 -3.66638e-006 -3.90485e-006 0.1927 -3.8059 -0.2383 0.0163504 0.00303679 -0.000869352 0.1091 -2.1688 -0.1362 2.5484e-006 -3.66699e-006 -3.90474e-006 0.6151 -8.0947 -3.564 2.54783e-006 -3.66638e-006 -3.90485e-006 0.4882 -2.341 -0.6462 0.0145786 0.00367893 -0.00325882 0.3574 -1.7166 -0.4742 2.4847e-006 -5.24025e-007 -3.71238e-006 1.4199 -1.8761 1.4221 2.54783e-006 -3.66638e-006 -3.90485e-006 1.1472 -3.4929 2.6336 -7.41138e-006 -5.55142e-006 -1.83983e-006 0.8229 -2.3 1.6571 2.48513e-006 -2.2899e-006 -3.71269e-006 -9.412 3.9771 -0.7758 -63.5375 -31.2766 -81.1676 -0.7531 -40.938 3.55271e-015 -148.79 14.1765 -170.994 7.10543e-015 -40.1986 1.77636e-015 -35.3149 40.0161 25.135 -3.55271e-015 -4.4182 9.239 -1.11635e-005 1.04522e-005 9.23698e-006 9.4119 3.9773 -0.7758 63.498 -31.1948 81.0806 0.7532 -40.9383 -1.77636e-015 148.917 14.119 170.98 0 -40.1986 1.77636e-015 35.5433 39.9098 -25.1498 0 -4.4182 9.239 9.89813e-006 -1.98314e-005 1.26819e-005 
